<?xml version="1.0" standalone="no"?>
<!DOCTYPE svg PUBLIC "-//W3C//DTD SVG 20010904//EN"
 "http://www.w3.org/TR/2001/REC-SVG-20010904/DTD/svg10.dtd">
<svg version="1.0" xmlns="http://www.w3.org/2000/svg"
 width="114.000000pt" height="56.000000pt" viewBox="0 0 114.000000 56.000000"
 preserveAspectRatio="xMidYMid meet">

<g transform="translate(0.000000,56.000000) scale(0.100000,-0.100000)"
fill="#000000" stroke="none">
<path d="M105 490 c-32 -12 -43 -32 -50 -85 -10 -75 4 -87 99 -91 71 -3 78 -1
85 18 l8 22 5 -22 c6 -22 7 -22 224 -20 l219 3 11 55 c12 54 16 49 18 -20 1
-29 5 -36 24 -38 31 -5 52 15 52 48 0 15 7 33 15 40 19 16 20 -2 3 -30 -10
-16 -10 -23 5 -37 13 -13 36 -18 93 -19 68 -2 76 0 83 19 8 20 8 20 14 -2 4
-18 11 -22 33 -19 32 3 40 27 46 128 3 51 1 55 -20 58 -13 2 -29 -2 -37 -8 -9
-7 -15 -8 -20 0 -8 13 -52 13 -60 0 -4 -6 -13 -7 -23 -1 -9 5 -45 9 -79 9 -47
1 -65 -3 -71 -15 -8 -14 -10 -14 -15 1 -7 19 -96 23 -114 5 -8 -8 -13 -8 -17
0 -9 14 -53 14 -61 1 -4 -6 -13 -7 -24 -1 -24 13 -261 13 -277 0 -8 -7 -14 -7
-19 1 -8 13 -52 13 -60 0 -4 -7 -12 -7 -25 0 -22 12 -37 12 -65 0z m59 -16
c25 -10 20 -36 -6 -33 -33 5 -48 -8 -48 -40 0 -33 9 -44 24 -31 7 5 18 5 26 0
11 -7 11 -11 1 -24 -16 -19 -62 -21 -79 -4 -22 22 -8 112 21 130 15 9 40 10
61 2z m76 -24 c0 -23 4 -30 20 -30 16 0 20 7 20 30 0 24 4 30 21 30 20 0 21
-4 15 -47 -13 -92 -17 -103 -37 -103 -16 0 -18 5 -13 25 5 21 3 25 -15 25 -16
0 -21 -6 -21 -25 0 -19 -5 -25 -21 -25 -20 0 -21 3 -14 68 8 76 10 82 31 82 9
0 14 -11 14 -30z m198 13 c-2 -12 -14 -19 -36 -21 -40 -4 -42 -22 -2 -22 22 0
28 -4 24 -15 -4 -8 -17 -15 -29 -15 -13 0 -27 -4 -30 -10 -4 -6 7 -10 24 -10
24 0 31 -4 31 -20 0 -17 -7 -20 -51 -20 l-51 0 6 48 c15 106 12 102 68 102 42
0 49 -3 46 -17z m110 5 c17 -17 15 -54 -4 -73 -15 -14 -15 -18 0 -40 16 -24
16 -25 -8 -25 -17 0 -30 9 -40 28 -15 26 -15 26 -16 4 0 -21 -24 -41 -36 -29
-3 3 -2 37 2 76 l7 71 41 0 c23 0 47 -5 54 -12z m89 -20 l18 -33 3 33 c3 25 8
32 24 32 18 0 20 -4 14 -47 -13 -91 -17 -103 -36 -103 -11 0 -24 14 -33 38
l-16 37 0 -37 c-1 -32 -4 -38 -22 -38 -20 0 -21 3 -14 68 4 37 9 70 12 75 10
17 34 5 50 -25z m127 10 l7 -23 16 23 c14 19 53 32 53 16 0 -3 -13 -25 -30
-49 -16 -24 -30 -55 -30 -69 0 -19 -5 -26 -20 -26 -17 0 -20 6 -18 38 0 20 -6
51 -15 69 -22 41 -21 43 7 43 16 0 26 -7 30 -22z m165 13 c21 -13 3 -32 -25
-25 -32 8 -32 -14 1 -26 34 -13 41 -35 21 -65 -17 -26 -57 -33 -85 -16 -12 8
-13 12 -2 25 11 13 17 14 28 5 10 -9 17 -9 24 -2 8 8 2 15 -18 25 -34 16 -43
56 -17 75 20 15 53 17 73 4z m71 -21 c0 -23 4 -30 20 -30 16 0 20 7 20 30 0
24 4 30 21 30 20 0 21 -4 15 -47 -13 -92 -17 -103 -37 -103 -16 0 -18 5 -13
25 5 21 3 25 -15 25 -16 0 -21 -6 -21 -25 0 -19 -5 -25 -21 -25 -20 0 -21 3
-14 68 8 76 10 82 31 82 9 0 14 -11 14 -30z m-820 -50 c0 -13 -6 -16 -25 -12
-15 2 -25 11 -25 22 0 13 6 16 25 12 15 -2 25 -11 25 -22z"/>
<path d="M490 430 c0 -13 5 -20 13 -17 6 2 12 10 12 17 0 7 -6 15 -12 18 -8 2
-13 -5 -13 -18z"/>
<path d="M284 266 c-3 -7 1 -49 8 -92 l13 -79 60 -2 c33 -1 65 3 72 8 7 7 13
6 18 -1 3 -5 41 -10 86 -10 63 0 81 3 86 15 5 14 7 14 22 1 12 -11 40 -15 105
-15 91 1 108 9 88 45 -6 11 -5 26 5 45 29 57 -5 99 -81 99 -41 0 -56 -15 -57
-60 l-1 -35 -11 45 c-10 38 -16 45 -39 48 -23 3 -30 -3 -48 -37 -22 -44 -37
-57 -18 -17 21 46 7 56 -82 56 -57 0 -82 -4 -86 -13 -5 -14 -70 -11 -80 4 -8
14 -54 11 -60 -5z m57 -53 l0 -48 16 38 c19 46 38 48 48 5 l7 -33 15 43 15 42
69 0 c53 0 69 -3 69 -14 0 -9 -12 -16 -32 -18 -42 -4 -50 -28 -9 -28 37 0 33
-27 -5 -32 -32 -4 -32 -22 1 -26 14 -2 25 -10 25 -18 0 -10 -13 -14 -48 -14
l-48 0 7 53 c13 90 9 94 -20 22 -32 -79 -57 -96 -68 -45 l-6 32 -13 -31 c-17
-41 -40 -40 -47 2 -20 118 -20 117 2 117 18 0 21 -6 22 -47z m334 25 c30 -133
30 -128 5 -128 -11 0 -20 7 -20 15 0 20 -37 19 -48 -1 -5 -9 -16 -14 -24 -13
-12 3 -8 18 18 77 34 74 59 92 69 50z m149 6 c20 -20 20 -34 -1 -63 -13 -19
-14 -28 -5 -42 16 -25 15 -29 -8 -29 -12 0 -25 10 -32 25 -12 27 -28 24 -28
-6 0 -10 -7 -19 -15 -19 -17 0 -18 17 -9 98 l7 52 38 0 c21 0 45 -7 53 -16z"/>
<path d="M640 190 c0 -11 4 -20 9 -20 5 0 7 9 4 20 -3 11 -7 20 -9 20 -2 0 -4
-9 -4 -20z"/>
<path d="M767 224 c-14 -14 -7 -35 11 -32 9 2 17 10 17 17 0 16 -18 25 -28 15z"/>
</g>
</svg>
